<?xml version="1.0" encoding="UTF-8" standalone="no"?>
<!-- Created with Inkscape (http://www.inkscape.org/) -->

<svg
   version="1.1"
   id="svg4985"
   width="677"
   height="81.040001"
   viewBox="0 0 677 81.040001"
   sodipodi:docname="WoodMac_Vesseltracker_2023.svg"
   inkscape:version="1.2.2 (b0a8486, 2022-12-01)"
   xmlns:inkscape="http://www.inkscape.org/namespaces/inkscape"
   xmlns:sodipodi="http://sodipodi.sourceforge.net/DTD/sodipodi-0.dtd"
   xmlns="http://www.w3.org/2000/svg"
   xmlns:svg="http://www.w3.org/2000/svg">
  <defs
     id="defs4989" />
  <sodipodi:namedview
     id="namedview4987"
     pagecolor="#ffffff"
     bordercolor="#cccccc"
     borderopacity="1"
     inkscape:showpageshadow="0"
     inkscape:pageopacity="1"
     inkscape:pagecheckerboard="0"
     inkscape:deskcolor="#d1d1d1"
     showgrid="false"
     inkscape:zoom="1.0435792"
     inkscape:cx="126.96689"
     inkscape:cy="45.995552"
     inkscape:window-width="1876"
     inkscape:window-height="796"
     inkscape:window-x="173"
     inkscape:window-y="140"
     inkscape:window-maximized="0"
     inkscape:current-layer="layer2">
    <inkscape:page
       x="0"
       y="0"
       id="page4991"
       width="677"
       height="81.040001" />
  </sodipodi:namedview>
  <g
     inkscape:groupmode="layer"
     id="layer2"
     inkscape:label="Page 2"
     style="display:inline">
    <path
       d="m 191.56932,1.4090624 h -4.34369 c -0.15614,0 -0.2831,0.1266928 -0.2831,0.2830971 v 9.1313715 c -1.85554,-1.8555349 -4.21337,-2.7833045 -6.68753,-2.7833045 -5.33451,0 -9.66392,4.4067585 -9.66392,10.8237795 0,6.300979 4.56147,10.784819 9.77997,10.784819 2.58991,0 4.75431,-0.927769 6.57148,-2.705946 v 1.881886 c 0,0.156402 0.12667,0.283095 0.2831,0.283095 h 4.34369 c 0.15639,0 0.28306,-0.126693 0.28306,-0.283095 V 1.6918772 c 0,-0.1564002 -0.12667,-0.2830944 -0.28306,-0.2830944 z M 181.14914,24.932899 c -3.29371,0 -5.67451,-2.5899 -5.67451,-6.107855 0,-3.362951 2.18235,-6.068894 5.67451,-6.068894 3.33323,0 5.79367,2.435462 5.79367,6.030215 0,3.749474 -2.53975,6.146257 -5.79367,6.146257 z M 168.5032,18.825044 c 0,5.952856 -4.59988,10.823781 -10.8622,10.823781 -5.95339,0 -10.66933,-4.754605 -10.66933,-10.785099 0,-6.223619 5.02566,-10.8237811 10.63068,-10.8237811 5.9918,0 10.90085,4.7159231 10.90085,10.7850991 z m -16.64771,-5.82e-4 c 0,3.567847 2.32027,6.105056 5.82083,6.105056 3.33829,0 5.94334,-2.378566 5.94334,-6.065251 0,-3.567846 -2.40155,-6.105056 -5.94334,-6.105056 -3.37838,0 -5.82083,2.577012 -5.82083,6.065533 z m -6.5412,21.846288 h -4.34368 c -0.15611,0 -0.28311,0.126694 -0.28311,0.283096 v 1.959242 c -1.85554,-1.855533 -4.21337,-2.783302 -6.68748,-2.783302 -5.33454,0 -9.66396,4.406754 -9.66396,10.823774 0,6.300968 4.56151,10.784815 9.78,10.784815 2.58989,0 4.75431,-0.927741 6.57144,-2.705935 v 1.881888 c 0,0.156393 0.12672,0.283104 0.28311,0.283104 h 4.34368 c 0.1564,0 0.28311,-0.126711 0.28311,-0.283104 V 40.953864 c 0,-0.156403 -0.12671,-0.283096 -0.28311,-0.283096 z m -10.42014,16.351444 c -3.29374,0 -5.67455,-2.589919 -5.67455,-6.107855 0,-3.362952 2.18236,-6.068915 5.67455,-6.068915 3.33323,0 5.79363,2.435458 5.79363,6.030224 0,3.749466 -2.53972,6.146267 -5.79363,6.146267 z M 95.695204,33.442023 h 4.737506 c 0.12194,0 0.23013,0.0782 0.26854,0.193963 l 6.35282,19.172578 6.42965,-19.173697 c 0.0387,-0.115201 0.14657,-0.193125 0.26822,-0.193125 h 4.6596 c 0.13818,0 0.25619,0.09979 0.27917,0.236007 l 4.5822,27.188963 c 0.0292,0.172633 -0.10397,0.329894 -0.27917,0.329894 h -4.52923 c -0.1379,0 -0.25591,-0.09952 -0.27889,-0.235736 L 115.249,43.64664 109.39983,61.003774 c -0.0387,0.115201 -0.14656,0.192553 -0.26823,0.192553 h -4.23129 c -0.12194,0 -0.23013,-0.07791 -0.26851,-0.193677 L 98.85889,43.64664 95.846018,60.961994 c -0.02359,0.135657 -0.141275,0.234612 -0.278901,0.234612 h -4.567083 c -0.175478,0 -0.308597,-0.158101 -0.278887,-0.331018 L 95.416596,33.67663 c 0.02353,-0.135662 0.141268,-0.234888 0.278887,-0.234888 z m 74.652316,0 h 4.33528 c 0.20882,0 0.37812,0.169298 0.37812,0.378114 v 15.316311 l 7.44962,-8.281806 c 0.10538,-0.117163 0.25563,-0.184152 0.41314,-0.184152 h 5.54839 c 0.24023,0 0.36719,0.283937 0.20715,0.463044 l -8.17027,9.137555 c -0.13004,0.145444 -0.12808,0.366064 0.005,0.508984 l 9.22893,9.949827 c 0.1648,0.177716 0.0389,0.466706 -0.20379,0.466706 h -5.49822 c -0.15527,0 -0.30326,-0.06475 -0.40837,-0.178832 l -8.57108,-9.29169 v 9.092676 c 0,0.208832 -0.16929,0.378129 -0.37812,0.378129 h -4.33527 c -0.20884,0 -0.37814,-0.169297 -0.37814,-0.378129 v -26.9989 c 0,-0.208819 0.1693,-0.378118 0.37814,-0.378118 z m 60.68641,13.722836 v 13.74893 c 0,0.156393 -0.12695,0.283379 -0.28335,0.283379 h -4.31678 c -0.15643,0 -0.28338,-0.126986 -0.28338,-0.283379 v -9.419234 c 0,-4.058914 -0.36971,-6.648829 -3.69453,-6.648829 -1.51919,0 -2.83292,0.695958 -3.69513,1.971589 -1.10854,1.662114 -1.06736,3.517656 -1.06736,5.643672 v 8.453085 c 0,0.15639 -0.12695,0.283379 -0.28334,0.283379 h -4.33868 c -0.15639,0 -0.28338,-0.126989 -0.28338,-0.283379 V 40.954427 c 0,-0.156402 0.12699,-0.283375 0.28338,-0.283375 h 3.99559 c 0.15639,0 0.28338,0.126973 0.28338,0.283375 v 1.958681 c 0.56451,-0.564514 1.17976,-1.03231 1.8264,-1.425005 1.1091,-0.629255 2.28689,-1.056981 3.46356,-1.24618 0.0701,-0.01038 0.14015,-0.02157 0.21076,-0.03027 0.12166,-0.01652 0.24332,-0.03139 0.36467,-0.04288 0.26629,-0.0227 0.53395,-0.03728 0.80333,-0.03784 0.006,0 0.0127,8.19e-4 0.0188,8.19e-4 3.80945,0.01821 6.99581,2.642314 6.99581,7.033649 z m 22.34634,-6.494088 h 4.16598 c 0.20826,0 0.37729,0.169017 0.37729,0.377272 v 19.771841 c 0,0.20827 -0.16903,0.377284 -0.37729,0.377284 h -4.16598 c -0.20823,0 -0.37725,-0.169014 -0.37725,-0.377284 V 41.048043 c 0,-0.208255 0.16902,-0.377272 0.37725,-0.377272 z m 4.32156,-2.969979 h -4.47711 c -0.10345,0 -0.18726,-0.08381 -0.18726,-0.187235 v -3.884296 c 0,-0.10343 0.0838,-0.187238 0.18726,-0.187238 h 4.47711 c 0.10342,0 0.18723,0.08381 0.18723,0.187238 v 3.884296 c 0,0.103427 -0.0838,0.187235 -0.18723,0.187235 z m -47.10681,12.804319 c -0.36382,-5.744879 -5.0862,-10.36129 -10.84255,-10.375585 -6.62895,-0.01654 -10.70049,5.170839 -10.70049,10.784833 l 0.0642,0.01937 h -0.0642 c 0.009,6.015346 4.21589,10.793511 10.73521,10.793511 4.15142,0 6.98631,-1.280679 9.15411,-4.149734 0.14238,-0.188624 0.0703,-0.462219 -0.14352,-0.56311 l -3.68222,-1.742304 c -0.13958,-0.06616 -0.30439,-0.03701 -0.41791,0.06784 -1.37119,1.265807 -2.80545,1.830848 -4.91046,1.830848 0,0 -4.939,0.273032 -5.75579,-4.750661 l 0.007,0.0022 h 16.17597 c 0.20098,0 0.36803,-0.158107 0.37673,-0.358768 0.0183,-0.417385 0.0572,-0.710833 0.003,-1.558165 z m -16.13479,-2.141697 c 0.97123,-2.589919 2.87526,-3.865514 5.34015,-3.865514 2.65127,0 4.77982,1.468713 5.45168,3.865514 z m 87.6795,2.141697 c -0.36395,-5.744879 -5.08623,-10.36129 -10.84258,-10.375585 -6.62895,-0.01653 -10.70045,5.170839 -10.70045,10.784833 l 0.0642,0.01937 h -0.0642 c 0.009,6.015346 4.21586,10.793511 10.73521,10.793511 4.15139,0 6.98639,-1.280679 9.15407,-4.149734 0.14226,-0.188624 0.0705,-0.462219 -0.14366,-0.56311 l -3.68208,-1.742304 c -0.13958,-0.06616 -0.3044,-0.03701 -0.41792,0.06784 -1.37118,1.265807 -2.80544,1.830848 -4.91041,1.830848 0,0 -4.93904,0.273032 -5.75582,-4.750661 l 0.007,0.0022 h 16.17585 c 0.20119,0 0.36812,-0.158107 0.37681,-0.358768 0.0183,-0.417385 0.0573,-0.710833 0.003,-1.558165 z m -16.13478,-2.141697 c 0.9712,-2.589919 2.87522,-3.865514 5.34012,-3.865514 2.6513,0 4.77985,1.468713 5.45171,3.865514 z M 144.88319,18.825044 c 0,5.952856 -4.59988,10.823781 -10.86216,10.823781 -5.95343,0 -10.66933,-4.754605 -10.66933,-10.785099 0,-6.223619 5.02563,-10.8237811 10.63063,-10.8237811 5.99185,0 10.90086,4.7159231 10.90086,10.7850991 z m -16.64769,-5.82e-4 c 0,3.567847 2.32029,6.105056 5.82085,6.105056 3.3383,0 5.94333,-2.378566 5.94333,-6.065251 0,-3.567846 -2.40156,-6.105056 -5.94333,-6.105056 -3.37838,0 -5.82085,2.577012 -5.82085,6.065533 z m -9.88311,10.339436 h -4.58978 c -0.16257,0 -0.30692,-0.104269 -0.35821,-0.25871 L 107.07312,9.7970789 100.66508,28.906309 c -0.0516,0.1536 -0.19564,0.257308 -0.35764,0.257308 h -4.511876 c -0.184172,0 -0.341396,-0.132859 -0.371951,-0.314488 L 90.873325,1.8488215 C 90.834662,1.6187019 91.012104,1.408763 91.245284,1.408763 h 4.337803 c 0.184172,0 0.341123,0.1328592 0.371958,0.3142064 L 98.878222,18.958444 104.70579,1.6655098 c 0.0518,-0.1536017 0.19564,-0.2567468 0.35764,-0.2567468 h 4.09564 c 0.16256,0 0.30664,0.1039886 0.35793,0.258148 l 5.75133,17.291533 2.99942,-17.2371582 c 0.0314,-0.180786 0.18834,-0.3125228 0.37166,-0.3125228 h 4.37594 c 0.23402,0 0.41174,0.210779 0.37165,0.4414577 l -4.66294,27.0003113 c -0.0311,0.180787 -0.1881,0.313085 -0.37167,0.313085 z m 49.44643,28.413851 c -2.16751,2.869051 -5.0024,4.149733 -9.1541,4.149733 -6.51931,0 -10.72623,-4.778168 -10.73521,-10.793513 0.009,-6.015345 4.2159,-10.793513 10.73521,-10.793513 4.15142,0 6.98631,1.280657 9.1541,4.149734 0.1424,0.188628 0.0703,0.462185 -0.14351,0.56311 l -3.68222,1.742307 c -0.13959,0.06613 -0.3044,0.03697 -0.41791,-0.06785 -1.37119,-1.265807 -2.80546,-1.830883 -4.91046,-1.830883 0,0 -5.87267,-0.329336 -5.87267,6.236809 0,6.566145 5.87267,6.236778 5.87267,6.236778 2.10529,0 3.53955,-0.565323 4.91046,-1.830849 0.11351,-0.104855 0.27832,-0.133726 0.41791,-0.06784 l 3.68222,1.742304 c 0.21384,0.101171 0.28591,0.374483 0.14351,0.563111 z m 82.32192,-0.465307 v 3.801347 c 0,0.156673 -0.12415,0.283662 -0.28085,0.283662 h -15.94024 c -0.21778,0 -0.354,-0.235457 -0.24581,-0.424369 l 9.01645,-15.734239 h -7.54605 c -0.15639,0 -0.28334,-0.126957 -0.28334,-0.28338 v -3.801316 c 0,-0.156403 0.12695,-0.283376 0.28334,-0.283376 h 14.96092 c 0.21779,0 0.35401,0.235445 0.24582,0.424364 l -9.01645,15.734241 h 8.52034 c 0.15639,0 0.28559,0.126672 0.28587,0.283066 z M 49.742635,12.607035 c 0.528916,0.52891 0.826042,1.246459 0.826042,1.994561 0,0.748099 -0.297126,1.465369 -0.826317,1.994561 L 5.1001546,61.235832 C 4.559753,61.776245 3.7469054,61.937966 3.0408455,61.64536 2.3347904,61.35272 1.874269,60.663773 1.874269,59.899684 V 3.6505635 c 0,-0.8750743 0.5269527,-1.6638184 1.3353141,-1.9987693 C 4.0179446,1.316848 4.9482399,1.5018406 5.5671247,2.1201648 L 18.907371,15.453686 c 0.902266,0.901702 2.36455,0.901702 3.266812,0 L 35.388575,2.2418117 c 1.101556,-1.1012703 2.887287,-1.1012703 3.988567,0 L 49.74236,12.607035 Z M 24.986066,50.597898 c -0.5289,-0.528909 -0.82601,-1.246476 -0.82601,-1.99457 0,-0.748088 0.29711,-1.465377 0.82629,-1.994568 L 69.628549,1.9690875 c 0.540407,-0.5404051 1.353257,-0.7021315 2.059322,-0.4095084 0.706058,0.2926273 1.166568,0.981586 1.166568,1.7456626 V 59.554074 c 0,0.875084 -0.526946,1.663829 -1.335302,1.998775 -0.808363,0.334951 -1.738663,0.149969 -2.357548,-0.468357 L 55.821341,47.750946 c -0.902266,-0.901674 -2.364524,-0.901674 -3.266796,0 L 39.340136,60.962834 c -1.101559,1.10128 -2.887292,1.10128 -3.988536,0 L 24.986346,50.597616 Z"
       style="fill:#ffffff;stroke-width:0.280292"
       id="path3011" />
  </g>
  <g
     id="g4993"
     inkscape:groupmode="layer"
     inkscape:label="Page 1"
     transform="matrix(1.3333333,0,0,-1.3333333,0,81.04)"
     style="display:inline">
    <g
       id="g4995"
       transform="matrix(0.1,0,0,0.1,37.5,0)">
      <path
         d="m 3480.1,29.7695 13.61,33.4688 13.51,-33.4688 z m 13.68,45.0118 -0.07,0.1835 -29.35,-72.40621 -0.05,-0.09375 h 4.69 l 9.38,22.98046 h 30.58 l 9.34,-22.92967 0.01,-0.05079 h 4.72 l -29.25,72.31646"
         style="fill:#ffffff;fill-opacity:1;fill-rule:nonzero;stroke:none"
         id="path4997" />
      <path
         d="M 3652.62,72.5156 3652.57,72.4063 3628.97,0 3628.89,0.1875 3602.26,64.6328 3575.64,0 l -0.06,0.199219 -23.4,72.316381 h 4.63 l 0.01,-0.0664 19.58,-59.8672 26.14,63.5782 0.06,-0.168 26.06,-63.4102 19.34,59.9336 h 4.62"
         style="fill:#ffffff;fill-opacity:1;fill-rule:nonzero;stroke:none"
         id="path4999" />
      <path
         d="m 3654.25,26.1523 c 0,-10.8164 8.54,-20.39058 19.77,-20.39058 11.63,0 20.7,8.85548 20.7,20.39058 0,11.7383 -8.96,20.5938 -20.7,20.5938 -11.33,0 -19.77,-9.5781 -19.77,-20.5938 z m 45.11,0.1016 c 0,-14.1055 -11.03,-24.8164 -25.03,-24.8164 -13.69,0 -24.72,11.2227 -24.72,24.7148 0,13.6954 10.92,24.918 24.72,24.918 14,0 25.03,-10.7109 25.03,-24.8164"
         style="fill:#ffffff;fill-opacity:1;fill-rule:nonzero;stroke:none"
         id="path5001" />
      <path
         d="m 3708.55,26.1523 c 0,-10.8164 8.55,-20.39058 19.77,-20.39058 11.64,0 20.69,8.85548 20.69,20.39058 0,11.7383 -8.95,20.5938 -20.69,20.5938 -11.33,0 -19.77,-9.5781 -19.77,-20.5938 z m 45.1,0.1016 c 0,-14.1055 -11.01,-24.8164 -25.02,-24.8164 -13.7,0 -24.71,11.2227 -24.71,24.7148 0,13.6954 10.91,24.918 24.71,24.918 14.01,0 25.02,-10.7109 25.02,-24.8164"
         style="fill:#ffffff;fill-opacity:1;fill-rule:nonzero;stroke:none"
         id="path5003" />
      <path
         d="m 3800.6,27.0742 c 0,11.0235 -7.52,19.6719 -19.06,19.6719 -10.91,0 -18.42,-9.8867 -18.42,-20.1836 0,-10.9141 7.19,-20.80078 18.74,-20.80078 12.14,0 18.74,9.88668 18.74,21.31248 z m -0.32,-16.0625 h -0.2 c -3.51,-6.0742 -11.12,-9.5742 -18.13,-9.5742 -14.41,0 -23.47,11.2227 -23.47,25.125 0,13.9023 8.95,24.5078 23.27,24.5078 7.31,0 14.31,-3.293 18.33,-9.2695 h 0.2 v 30.918 h 4.64 V 2.46484 h -4.64 v 8.54686"
         style="fill:#ffffff;fill-opacity:1;fill-rule:nonzero;stroke:none"
         id="path5005" />
      <path
         d="m 3918.59,2.46484 v 0.0625 l -11.95,57.77736 h -0.07 l -24.43,-60.289075 -0.06,0.171875 -24.29,60.1172 h -0.06 L 3845.77,2.46484 h -4.42 l 0.02,0.09375 15.07,72.45311 0.08,-0.2304 25.62,-63.4102 25.8,63.6406 0.05,-0.2461 15.03,-72.30076 h -4.43"
         style="fill:#ffffff;fill-opacity:1;fill-rule:nonzero;stroke:none"
         id="path5007" />
      <path
         d="m 3931.03,26.5625 c 0,-10.9141 7.2,-20.80078 18.74,-20.80078 12.14,0 18.74,9.88668 18.74,21.31248 0,11.0235 -7.52,19.6719 -19.06,19.6719 -10.91,0 -18.42,-9.8867 -18.42,-20.1836 z m 41.8,-24.09766 h -4.64 v 8.54686 h -0.2 c -3.5,-6.0742 -11.12,-9.5742 -18.13,-9.5742 -14.41,0 -23.47,11.2227 -23.47,25.125 0,13.9023 8.95,24.5078 23.27,24.5078 7.31,0 14.31,-3.293 18.33,-9.2695 h 0.2 v 8.2383 h 4.64 V 2.46484"
         style="fill:#ffffff;fill-opacity:1;fill-rule:nonzero;stroke:none"
         id="path5009" />
      <path
         d="m 4022.12,39.0234 c -4.53,4.9414 -9.99,7.7227 -16.79,7.7227 -11.22,0 -19.67,-9.5781 -19.67,-20.3906 0,-10.8086 8.34,-20.59378 19.56,-20.59378 6.8,0 13.19,3.29687 17.51,8.54688 V 8.02734 c -4.84,-4.22265 -10.91,-6.58984 -17.29,-6.58984 -14.11,0 -24.4,11.0195 -24.4,24.918 0,13.8008 10.49,24.7148 24.5,24.7148 6.18,0 11.84,-1.8515 16.58,-5.8711 v -6.1758"
         style="fill:#ffffff;fill-opacity:1;fill-rule:nonzero;stroke:none"
         id="path5011" />
      <path
         d="m 4035.57,29.8594 19.57,20.1797 h 5.96 L 4041.13,29.4492 4067.8,2.46484 h -6.07 l -23.59,23.78906 -2.57,-2.6797 V 2.46484 h -4.63 V 72.7188 h 4.63 V 29.8594"
         style="fill:#ffffff;fill-opacity:1;fill-rule:nonzero;stroke:none"
         id="path5013" />
      <path
         d="m 4106.22,30.1641 c -1.13,8.7578 -8.34,16.582 -18.12,16.582 -9.68,0 -17.71,-7.6211 -18.54,-16.582 z m -36.66,-4.3203 c -0.3,-12.0508 8.04,-20.08208 19.05,-20.08208 7.42,0 13.39,4.42968 16.79,10.80858 l 3.92,-2.2617 C 4104.99,6.07031 4097.36,1.4375 4088,1.4375 c -14.11,0 -23.07,11.4297 -23.07,24.918 0,13.2851 9.16,24.7148 23.07,24.7148 14.41,0 22.96,-11.5312 22.86,-25.2265 h -41.3"
         style="fill:#ffffff;fill-opacity:1;fill-rule:nonzero;stroke:none"
         id="path5015" />
      <path
         d="m 4123.37,42.6289 h 0.2 c 2.79,5.2539 7.93,8.4414 14.12,8.4414 12.25,0 15.65,-7.6172 15.65,-19.875 V 2.46484 h -4.64 V 31.1953 c 0,8.5469 -1.02,15.5508 -11.42,15.5508 -11.95,0 -13.91,-11.1211 -13.91,-20.8008 V 2.46484 h -4.63 V 50.0391 h 4.63 v -7.4102"
         style="fill:#ffffff;fill-opacity:1;fill-rule:nonzero;stroke:none"
         id="path5017" />
      <path
         d="M 4206.99,6.79297 V 2.46484 h -48.4 l 38.93,43.25396 h -32.65 v 4.3203 h 42.33 L 4168.38,6.79297 h 38.61"
         style="fill:#ffffff;fill-opacity:1;fill-rule:nonzero;stroke:none"
         id="path5019" />
      <path
         d="m 4218.04,2.46484 h -4.64 V 50.0391 h 4.64 z m 1.95,62.90626 c 0,-2.375 -1.85,-4.2227 -4.22,-4.2227 -2.37,0 -4.23,1.8477 -4.23,4.2227 0,2.2656 1.86,4.2187 4.23,4.2187 2.37,0 4.22,-1.9531 4.22,-4.2187"
         style="fill:#ffffff;fill-opacity:1;fill-rule:nonzero;stroke:none"
         id="path5021" />
      <path
         d="m 4268.05,30.1641 c -1.14,8.7578 -8.34,16.582 -18.13,16.582 -9.68,0 -17.7,-7.6211 -18.53,-16.582 z m -36.66,-4.3203 c -0.31,-12.0508 8.03,-20.08208 19.05,-20.08208 7.41,0 13.39,4.42968 16.79,10.80858 l 3.91,-2.2617 c -4.32,-8.23829 -11.94,-12.8711 -21.32,-12.8711 -14.11,0 -23.06,11.4297 -23.06,24.918 0,13.2851 9.16,24.7148 23.06,24.7148 14.42,0 22.97,-11.5312 22.87,-25.2265 h -41.3"
         style="fill:#ffffff;fill-opacity:1;fill-rule:nonzero;stroke:none"
         id="path5023" />
      <path
         d="m 4340.59,9.46484 c -4.01,-2.70312 -8.76,-2.68359 -13.39,-2.68359 h -11.42 V 36.4883 h 9.75 c 5.19,0 10.6,-0.1836 14.7,-2.2149 4.36,-2.1445 7.18,-7.0312 7.18,-12.4609 0,-4.9961 -2.42,-9.3867 -6.82,-12.34766 z M 4323.4,68.1836 c 4.13,0 8.41,0 11.91,-2.2148 3.64,-2.2696 5.72,-6.4415 5.72,-11.418 0,-5.293 -1.5,-8.5195 -5.17,-11.1563 -3.63,-2.6211 -7.19,-2.6093 -11.31,-2.5937 h -8.77 v 27.3828 z m 24.61,-34.6445 c -2.57,3.1054 -6.13,5.2148 -10.3,6.1132 5.33,3.0899 7.93,7.7579 7.93,14.2461 0,6.2539 -1.98,11.1211 -5.87,14.5196 -4.27,3.7851 -9.52,4.0976 -14.53,4.0976 h -14.07 V 2.46484 h 17.97 c 6.27,0 11.45,0.85547 16.37,5.01172 4.27,3.63284 6.51,8.65624 6.51,14.52734 0,4.375 -1.38,8.3555 -4.01,11.5352"
         style="fill:#ffffff;fill-opacity:1;fill-rule:nonzero;stroke:none"
         id="path5025" />
      <path
         d="M 4394.47,50.0391 V 21.5195 c 0,-4.8437 0.1,-9.6836 -2.89,-13.69919 -3.29,-4.32422 -8.85,-6.38281 -14.21,-6.38281 -5.35,0 -10.91,2.05859 -14.21,6.38281 -2.98,4.01559 -2.88,8.85549 -2.88,13.69919 v 28.5196 h 4.63 v -26.875 c 0,-9.1641 1.04,-17.40238 12.46,-17.40238 11.44,0 12.46,8.23828 12.46,17.40238 v 26.875 h 4.64"
         style="fill:#ffffff;fill-opacity:1;fill-rule:nonzero;stroke:none"
         id="path5027" />
      <path
         d="m 4425.64,41.3906 c -1.54,3.2969 -4.63,5.3555 -8.34,5.3555 -4.02,0 -8.13,-3.293 -8.13,-7.4141 0,-11.4336 23.16,-5.8711 23.16,-23.0664 0,-8.75388 -6.79,-14.8281 -15.34,-14.8281 -7.93,0 -14.41,4.83594 -16.37,12.5625 l 4.53,1.4414 c 1.75,-5.66015 5.56,-9.67968 11.84,-9.67968 5.98,0 10.72,4.73438 10.72,10.70708 0,5.871 -4.54,7.7265 -9.27,9.375 -6.5,2.371 -13.91,5.1484 -13.91,13.1796 0,7.2071 6.08,12.0469 12.98,12.0469 4.83,0 10.09,-3.1875 12.15,-7.6172 l -4.02,-2.0625"
         style="fill:#ffffff;fill-opacity:1;fill-rule:nonzero;stroke:none"
         id="path5029" />
      <path
         d="m 4445.45,2.46484 h -4.64 V 50.0391 h 4.64 z m 1.95,62.90626 c 0,-2.375 -1.84,-4.2227 -4.22,-4.2227 -2.37,0 -4.21,1.8477 -4.21,4.2227 0,2.2656 1.84,4.2187 4.21,4.2187 2.38,0 4.22,-1.9531 4.22,-4.2187"
         style="fill:#ffffff;fill-opacity:1;fill-rule:nonzero;stroke:none"
         id="path5031" />
      <path
         d="m 4462.53,42.6289 h 0.2 c 2.79,5.2539 7.93,8.4414 14.12,8.4414 12.25,0 15.65,-7.6172 15.65,-19.875 V 2.46484 h -4.64 V 31.1953 c 0,8.5469 -1.02,15.5508 -11.42,15.5508 -11.95,0 -13.91,-11.1211 -13.91,-20.8008 V 2.46484 h -4.63 V 50.0391 h 4.63 v -7.4102"
         style="fill:#ffffff;fill-opacity:1;fill-rule:nonzero;stroke:none"
         id="path5033" />
      <path
         d="m 4541.93,30.1641 c -1.12,8.7578 -8.33,16.582 -18.11,16.582 -9.68,0 -17.72,-7.6211 -18.54,-16.582 z m -36.65,-4.3203 c -0.31,-12.0508 8.03,-20.08208 19.05,-20.08208 7.42,0 13.39,4.42968 16.78,10.80858 l 3.92,-2.2617 c -4.33,-8.23829 -11.94,-12.8711 -21.32,-12.8711 -14.11,0 -23.07,11.4297 -23.07,24.918 0,13.2851 9.16,24.7148 23.07,24.7148 14.42,0 22.97,-11.5312 22.86,-25.2265 h -41.29"
         style="fill:#ffffff;fill-opacity:1;fill-rule:nonzero;stroke:none"
         id="path5035" />
      <path
         d="m 4575.14,41.3906 c -1.56,3.2969 -4.64,5.3555 -8.35,5.3555 -4.02,0 -8.14,-3.293 -8.14,-7.4141 0,-11.4336 23.18,-5.8711 23.18,-23.0664 0,-8.75388 -6.8,-14.8281 -15.35,-14.8281 -7.93,0 -14.42,4.83594 -16.37,12.5625 l 4.53,1.4414 c 1.75,-5.66015 5.57,-9.67968 11.84,-9.67968 5.97,0 10.71,4.73438 10.71,10.70708 0,5.871 -4.53,7.7265 -9.27,9.375 -6.48,2.371 -13.9,5.1484 -13.9,13.1796 0,7.2071 6.08,12.0469 12.98,12.0469 4.84,0 10.09,-3.1875 12.15,-7.6172 l -4.01,-2.0625"
         style="fill:#ffffff;fill-opacity:1;fill-rule:nonzero;stroke:none"
         id="path5037" />
      <path
         d="m 4611.48,41.3906 c -1.54,3.2969 -4.62,5.3555 -8.34,5.3555 -4.01,0 -8.13,-3.293 -8.13,-7.4141 0,-11.4336 23.17,-5.8711 23.17,-23.0664 0,-8.75388 -6.79,-14.8281 -15.35,-14.8281 -7.92,0 -14.41,4.83594 -16.36,12.5625 l 4.53,1.4414 c 1.74,-5.66015 5.55,-9.67968 11.83,-9.67968 5.98,0 10.72,4.73438 10.72,10.70708 0,5.871 -4.54,7.7265 -9.27,9.375 -6.49,2.371 -13.91,5.1484 -13.91,13.1796 0,7.2071 6.09,12.0469 12.98,12.0469 4.84,0 10.1,-3.1875 12.15,-7.6172 l -4.02,-2.0625"
         style="fill:#ffffff;fill-opacity:1;fill-rule:nonzero;stroke:none"
         id="path5039" />
      <path
         d="m 2754.55,189.047 c -2.07,-1.094 -37.84,-18.828 -153.23,2.613 -49.54,9.215 -133.99,-14.722 -134.47,-14.859 l -16.17,-4.613 7.52,15.035 c 0.18,0.351 9.04,18.3 14.54,38.847 5.8,21.61 6.7,41.883 -3.78,50.868 -28.79,24.687 -20.38,45.128 -20.38,45.128 l -17.4,53.008 123.71,-7.109 c 5.27,-0.246 88.02,-6.699 202.24,-168.102 l 4.86,-6.871 -7.44,-3.945"
         style="fill:#2e2b2c;fill-opacity:1;fill-rule:evenodd;stroke:none"
         id="path5041" />
      <path
         d="m 2610.81,338.32 c 34.71,-21.14 83.41,-62.375 140.27,-142.734 0,0 -33.84,-17.945 -148.4,3.352 -23.51,4.367 -39.68,2.425 -66.15,-1.833 0.17,9.899 -14.28,61.602 -30.7,87.915 -9.51,15.253 -30.01,31.613 -47.38,43.746 l -0.24,0.515 c 41.35,-20.84 91.28,-42.093 91.28,-42.093 l -29.22,46.757 55.95,-13.265 c 0,0 18.96,9.55 34.59,17.64"
         style="fill:#ef6b18;fill-opacity:1;fill-rule:evenodd;stroke:none"
         id="path5043" />
      <path
         d="m 2458.45,328.766 c 17.37,-12.133 30.12,-29.766 39.64,-45.012 16.41,-26.316 43.2,-74.754 43.03,-84.66 -31.62,-5.102 -76.31,-15.18 -76.31,-15.18 0,0 22.8,45.59 19.16,77.016 l 21.01,-11.582 -39.53,64.047 -7,15.371"
         style="fill:#ffffff;fill-opacity:1;fill-rule:nonzero;stroke:none"
         id="path5045" />
      <path
         d="m 2509.76,457.598 -0.73,12.461 109.66,29.796 c 20.9,7.672 61.43,53.438 62.16,54.27 l 8.55,9.734 4.21,-12.254 c 0.13,-0.359 4,-11.683 3.35,-25.886 -0.65,-14.426 -6.32,-32.668 -25.55,-44.531 l -0.98,-0.489 c -38,-11.789 -111.17,-30.586 -111.17,-30.586 l -49.5,7.485"
         style="fill:#2e2b2c;fill-opacity:1;fill-rule:evenodd;stroke:none"
         id="path5047" />
      <path
         d="m 2516.24,464.223 104.72,28.453 c 23.12,8.207 65.54,56.488 65.54,56.488 0,0 14.14,-41.133 -18.79,-61.434 -37.38,-11.601 -108.84,-29.953 -108.84,-29.953 l -42.63,6.446"
         style="fill:#ef6b18;fill-opacity:1;fill-rule:evenodd;stroke:none"
         id="path5049" />
      <path
         d="m 2657.04,263.844 -69.5,16.476 36.29,-58.093 c 0,0 -62.04,26.41 -113.41,52.3 l 8.99,-19.742 49.13,-79.566 -119.17,65.676 -15.73,17.156 c -31.11,8.972 -73.41,20.715 -78.86,20.715 -0.05,-0.02 -0.12,-0.067 -0.27,-0.149 -0.29,-0.16 -0.75,-0.496 -1.4,-1.183 -1.22,-1.289 -2.47,-3.204 -3.67,-5.454 -2.35,-4.414 -3.88,-9 -4.1,-9.71 l -4.78,-15.887 -86.92,114.07 c 0,0 38.15,-15.07 58.25,-23.226 -2.88,7.171 -9.71,24.847 -9.71,24.847 l 69.89,-39.816 c 7.66,-0.867 15.54,-1.66 22.75,-2.352 l 33.59,0.332 8.05,-3.933 -18.12,30.965 -0.61,0.14 c -4,-0.793 -8.23,-1.16 -12.89,-1.16 -16.3,0 -30.6,2.227 -43.8,5.523 -12.93,3.239 -24.9,7.543 -36.86,11.856 -23.4,8.441 -45.52,16.367 -74.86,16.367 -13.43,0 -21.38,-3.43 -30.35,-13.336 l -9.81,-10.82 -4.62,13.848 c -1.84,5.546 -4.21,10.121 -5.66,14.714 -1.84,5.758 -2.68,12.203 -0.25,19.899 5.15,16.297 20.31,32.668 32.79,44.219 10.75,9.96 20.71,17.421 23.74,19.628 l 30.09,36.79 59.86,-31.145 52.89,-13.527 61.36,34.824 96.33,-22.242 c 3.38,0.136 14.32,0.636 29.66,2.074 30.51,5.32 88.84,16.726 122.22,30.808 15.86,9.645 30.41,20.364 38.15,26.278 11.95,11.832 21.65,24.937 28.42,35.199 6.81,10.313 22.34,40.598 22.34,40.598 0,0 2.26,-14.075 3.59,-25.594 1.33,-11.57 2.54,-25.648 2.08,-35.676 -0.92,-19.801 -5.17,-45.535 -19.44,-65.887 -10.29,-14.664 -21.11,-25.023 -29.59,-31.839 10.33,-2.809 19.44,-7.008 26.06,-10.567 6.99,-3.754 11.23,-6.804 11.24,-6.816 l 3.19,-2.305 -18.22,-3.285 c 0,0 -43.23,-4.613 -61.98,-8.941 -9.24,-2.133 -26.7,-7.477 -42.1,-12.368 10.23,-1.925 22,-3.851 35.16,-5.578 35.5,-0.035 112.24,38.371 113.18,38.84 l 27.75,15.504 -17,-28.113 c -0.17,-0.231 -12.81,-17.422 -32.99,-35.946 -13.51,-12.41 -30.87,-25.843 -50.52,-35.07 40.36,4.723 78.18,15.215 78.27,15.238 l 29.14,9.348 c 0,0 -11.42,-12.312 -20.91,-21.566 -9.44,-9.211 -21.38,-20.114 -31.08,-26.598 -18.99,-12.699 -45.73,-26.981 -75.78,-32.168 l -1.51,-0.258 -1.33,0.242 c -10.31,-6.172 -66.65,-34.558 -66.65,-34.558"
         style="fill:#2e2b2c;fill-opacity:1;fill-rule:nonzero;stroke:none"
         id="path5051" />
      <path
         d="m 2751.38,525.605 c 25.36,24.961 40.85,55.172 40.85,55.172 0,0 9.33,-58.414 -16.47,-95.187 -20.09,-28.652 -42.22,-39.805 -42.22,-39.805 l 1.6,-0.492 c -2.19,0.375 -4.53,0.758 -7.04,1.148 -35.13,5.489 -138.3,-31.128 -138.3,-31.128 l 48.87,-12.79 0.68,0.274 c 14.25,-3.578 36.95,-8.484 66.59,-12.336 37.87,-0.434 117.6,39.742 117.6,39.742 0,0 -48.92,-66.582 -107.99,-77.43 l -146.39,25.813 16.64,-13.773 c 0,0 52.36,-14.391 118.71,-21.274 52.5,-1.93 122.98,17.676 122.98,17.676 0,0 -45.54,-44.543 -102.36,-54.356 l -148.66,27.196 10.99,-14.821 120.56,-20.535 c 0,0 -20.09,-12.394 -51.7,-25.871 l -86.98,20.613 32.94,-52.714 c 0,0 -51.14,21.769 -109.81,52.714 l 19.51,-42.8 37.85,-56.028 -95.07,53.098 -16.42,17.91 c -30.1,8.695 -76.33,21.699 -83.54,21.699 -10.81,0 -17.6,-22.55 -17.6,-22.55 l -44.66,59.082 33.43,-1.286 0.52,-0.128 0.29,-0.598 42.06,-7.52 0.55,-0.312 3.34,-0.387 2.35,-0.254 c 6.6,-0.715 13.26,-1.379 19.41,-1.965 l 32.01,0.317 31.39,-15.356 -2,3.692 -32.02,54.781 -6.08,1.34 c -3.92,-0.926 -8.11,-1.367 -12.92,-1.367 -61.99,0 -93.53,33.754 -155.52,33.754 -15.78,0 -26.05,-4.403 -36.69,-16.137 -3.67,11.004 -9.41,18.148 -5.87,29.344 8.81,27.878 54.29,60.16 54.29,60.16 l 26.41,32.273 54.58,-28.39 57.18,-14.629 61.46,34.879 94.2,-21.747 c 0,0 12.48,0.387 31.61,2.176 30.42,5.305 90.52,16.977 124.98,31.668 16.69,10.098 32.03,21.426 39.88,27.445"
         style="fill:#ef6b18;fill-opacity:1;fill-rule:nonzero;stroke:none"
         id="path5053" />
      <path
         d="m 2254.21,458.621 30.73,18.668 55.99,-18.644 -53.8,9.89 -32.92,-9.914"
         style="fill:#2e2b2c;fill-opacity:1;fill-rule:evenodd;stroke:none"
         id="path5055" />
      <path
         d="m 2526.2,405.438 -34.33,-10.68 -49.82,31.64 49.82,-22.609 34.33,1.649"
         style="fill:#2e2b2c;fill-opacity:1;fill-rule:evenodd;stroke:none"
         id="path5057" />
      <path
         d="m 2326.76,321.824 48.68,-8.699 -62.38,37.359 z"
         style="fill:#ffffff;fill-opacity:1;fill-rule:evenodd;stroke:none"
         id="path5059" />
      <path
         d="m 2774.1,432.832 c -9.16,4.965 -10.9,8.113 -46,13.609 -35.13,5.489 -138.3,-31.128 -138.3,-31.128 l 48.87,-12.79 c 0,0 58.59,24.821 135.43,30.309"
         style="fill:#ffffff;fill-opacity:1;fill-rule:evenodd;stroke:none"
         id="path5061" />
      <path
         d="m 2325.94,322.539 -57.6,26.731 24.17,-25.446 z"
         style="fill:#ffffff;fill-opacity:1;fill-rule:evenodd;stroke:none"
         id="path5063" />
      <path
         d="m 2477.11,405.332 -56.82,33.422 c 30.89,2.457 51.81,13.371 51.81,13.371 0,0 26.74,-13.371 56.82,-13.371 l -51.81,-33.422"
         style="fill:#2e2b2c;fill-opacity:1;fill-rule:evenodd;stroke:none"
         id="path5065" />
      <path
         d="m 2451.26,437.41 c 0,2.57 0.46,5.031 1.29,7.309 12.28,3.617 19.55,7.406 19.55,7.406 0,0 8.18,-4.09 20.58,-7.75 0.76,-2.18 1.16,-4.52 1.16,-6.965 0,-11.758 -9.53,-21.289 -21.28,-21.289 -11.77,0 -21.3,9.531 -21.3,21.289"
         style="fill:#ffffff;fill-opacity:1;fill-rule:nonzero;stroke:none"
         id="path5067" />
      <path
         d="m 2464.26,435.406 c 0,1 0.18,1.957 0.51,2.84 4.78,1.41 7.6,2.887 7.6,2.887 0,0 3.19,-1.594 8.02,-3.02 0.29,-0.847 0.45,-1.758 0.45,-2.707 0,-4.582 -3.71,-8.293 -8.29,-8.293 -4.57,0 -8.29,3.711 -8.29,8.293"
         style="fill:#2e2b2c;fill-opacity:1;fill-rule:nonzero;stroke:none"
         id="path5069" />
      <path
         d="m 2879.96,147.063 h -11.46 l -50.51,125.414 h 10.73 l 45.39,-114.68 h 0.48 l 42.46,114.68 h 10.25 l -47.34,-125.414"
         style="fill:#ffffff;fill-opacity:1;fill-rule:nonzero;stroke:none"
         id="path5071" />
      <path
         d="m 3021.12,216.602 c -0.16,6.671 -1.31,13.054 -3.41,19.152 -2.12,6.101 -5.13,11.512 -9.04,16.223 -3.89,4.722 -8.7,8.464 -14.39,11.226 -5.7,2.766 -12.04,4.152 -19.04,4.152 -6.67,0 -12.76,-1.421 -18.29,-4.273 -5.53,-2.848 -10.29,-6.711 -14.27,-11.59 -4,-4.875 -7.12,-10.332 -9.4,-16.351 -2.28,-6.016 -3.66,-12.192 -4.15,-18.539 z m -91.99,-8.055 c 0,-15.942 4.02,-29.313 12.08,-40.133 8.05,-10.82 19.4,-16.23 34.03,-16.23 11.88,0 21.8,3.336 29.78,10.007 7.96,6.661 13.01,15.778 15.12,27.321 h 9.27 c -2.44,-14.641 -8.34,-25.856 -17.68,-33.668 -9.36,-7.801 -21.51,-11.707 -36.49,-11.707 -17.4,0 -30.98,5.976 -40.74,17.929 -9.76,11.957 -14.64,27.125 -14.64,45.508 0,8.949 1.18,17.489 3.54,25.617 2.35,8.137 5.86,15.375 10.49,21.719 4.64,6.344 10.45,11.344 17.45,15.008 6.99,3.656 14.96,5.492 23.9,5.492 9.12,0 17.17,-1.594 24.16,-4.762 7,-3.171 12.82,-7.652 17.45,-13.418 4.63,-5.781 8.09,-12.41 10.37,-19.89 2.27,-7.481 3.42,-15.531 3.42,-24.152 0,-0.493 -0.09,-1.219 -0.25,-2.196 v -2.445 h -101.26"
         style="fill:#ffffff;fill-opacity:1;fill-rule:nonzero;stroke:none"
         id="path5073" />
      <path
         d="m 3056.49,188.789 c 0.66,-11.391 4.85,-20.344 12.57,-26.848 7.73,-6.5 17.37,-9.757 28.92,-9.757 4.72,0 9.31,0.406 13.78,1.23 4.47,0.801 8.71,2.188 12.69,4.141 3.99,1.957 7.2,4.672 9.64,8.175 2.44,3.493 3.66,7.844 3.66,13.047 0,4.883 -1.06,8.911 -3.17,12.082 -2.12,3.168 -4.97,5.739 -8.54,7.692 -3.58,1.945 -7.49,3.488 -11.71,4.629 -4.23,1.136 -9.6,2.355 -16.11,3.66 l -3.42,0.734 c -6.5,1.305 -12.15,2.684 -16.96,4.149 -4.79,1.465 -9.19,3.457 -13.17,5.976 -3.99,2.52 -7.16,5.899 -9.51,10.129 -2.37,4.227 -3.54,9.352 -3.54,15.371 0,5.856 1.3,10.895 3.9,15.125 2.61,4.231 6.1,7.61 10.5,10.129 4.39,2.52 9.22,4.305 14.51,5.363 5.29,1.063 10.78,1.594 16.47,1.594 14.15,0 25.41,-3.258 33.79,-9.762 8.38,-6.511 12.57,-16.593 12.57,-30.257 h -9.27 c -0.16,10.898 -3.58,18.945 -10.25,24.148 -6.67,5.211 -15.62,7.816 -26.84,7.816 -4.56,0 -8.94,-0.457 -13.17,-1.343 -4.23,-0.895 -8.1,-2.282 -11.59,-4.153 -3.5,-1.863 -6.26,-4.386 -8.3,-7.558 -2.04,-3.18 -3.05,-6.875 -3.05,-11.102 0,-4.394 1.01,-8.136 3.05,-11.226 2.04,-3.086 4.8,-5.567 8.3,-7.446 3.49,-1.863 7.19,-3.336 11.1,-4.386 3.91,-1.059 9.02,-2.321 15.37,-3.786 1.62,-0.324 2.93,-0.566 3.9,-0.73 7.49,-1.465 13.71,-2.93 18.67,-4.391 4.96,-1.461 9.39,-3.5 13.3,-6.101 3.91,-2.606 6.95,-6.067 9.15,-10.371 2.2,-4.309 3.29,-9.633 3.29,-15.985 0,-6.336 -1.46,-11.785 -4.39,-16.343 -2.93,-4.551 -6.79,-8.172 -11.59,-10.856 -4.8,-2.68 -10.04,-4.598 -15.74,-5.734 -5.7,-1.137 -11.46,-1.707 -17.32,-1.707 -14.81,0 -26.89,3.906 -36.24,11.707 -9.36,7.812 -14.19,18.789 -14.51,32.945 h 9.26"
         style="fill:#ffffff;fill-opacity:1;fill-rule:nonzero;stroke:none"
         id="path5075" />
      <path
         d="m 3173.86,188.789 c 0.65,-11.391 4.83,-20.344 12.57,-26.848 7.72,-6.5 17.36,-9.757 28.9,-9.757 4.73,0 9.32,0.406 13.79,1.23 4.47,0.801 8.7,2.188 12.7,4.141 3.98,1.957 7.19,4.672 9.63,8.175 2.44,3.493 3.66,7.844 3.66,13.047 0,4.883 -1.06,8.911 -3.18,12.082 -2.11,3.168 -4.96,5.739 -8.53,7.692 -3.59,1.945 -7.48,3.488 -11.71,4.629 -4.24,1.136 -9.6,2.355 -16.1,3.66 l -3.42,0.734 c -6.52,1.305 -12.16,2.684 -16.96,4.149 -4.8,1.465 -9.19,3.457 -13.18,5.976 -3.98,2.52 -7.16,5.899 -9.51,10.129 -2.36,4.227 -3.55,9.352 -3.55,15.371 0,5.856 1.3,10.895 3.91,15.125 2.6,4.231 6.1,7.61 10.49,10.129 4.39,2.52 9.24,4.305 14.52,5.363 5.28,1.063 10.77,1.594 16.48,1.594 14.15,0 25.41,-3.258 33.78,-9.762 8.38,-6.511 12.57,-16.593 12.57,-30.257 h -9.27 c -0.16,10.898 -3.58,18.945 -10.25,24.148 -6.67,5.211 -15.61,7.816 -26.83,7.816 -4.57,0 -8.96,-0.457 -13.19,-1.343 -4.23,-0.895 -8.08,-2.282 -11.58,-4.153 -3.51,-1.863 -6.27,-4.386 -8.3,-7.558 -2.03,-3.18 -3.05,-6.875 -3.05,-11.102 0,-4.394 1.02,-8.136 3.05,-11.226 2.03,-3.086 4.79,-5.567 8.3,-7.446 3.5,-1.863 7.2,-3.336 11.09,-4.386 3.91,-1.059 9.04,-2.321 15.37,-3.786 1.64,-0.324 2.93,-0.566 3.91,-0.73 7.48,-1.465 13.7,-2.93 18.67,-4.391 4.96,-1.461 9.4,-3.5 13.29,-6.101 3.91,-2.606 6.97,-6.067 9.15,-10.371 2.2,-4.309 3.31,-9.633 3.31,-15.985 0,-6.336 -1.47,-11.785 -4.4,-16.343 -2.93,-4.551 -6.8,-8.172 -11.59,-10.856 -4.8,-2.68 -10.05,-4.598 -15.73,-5.734 -5.71,-1.137 -11.48,-1.707 -17.34,-1.707 -14.79,0 -26.87,3.906 -36.23,11.707 -9.35,7.812 -14.19,18.789 -14.51,32.945 h 9.27"
         style="fill:#ffffff;fill-opacity:1;fill-rule:nonzero;stroke:none"
         id="path5077" />
      <path
         d="m 3382.47,216.602 c -0.16,6.671 -1.3,13.054 -3.42,19.152 -2.12,6.101 -5.11,11.512 -9.02,16.223 -3.9,4.722 -8.7,8.464 -14.39,11.226 -5.7,2.766 -12.05,4.152 -19.04,4.152 -6.67,0 -12.77,-1.421 -18.3,-4.273 -5.53,-2.848 -10.28,-6.711 -14.28,-11.59 -3.98,-4.875 -7.11,-10.332 -9.39,-16.351 -2.28,-6.016 -3.65,-12.192 -4.14,-18.539 z m -91.98,-8.055 c 0,-15.942 4.02,-29.313 12.07,-40.133 8.06,-10.82 19.4,-16.23 34.04,-16.23 11.88,0 21.8,3.336 29.77,10.007 7.97,6.661 13.02,15.778 15.13,27.321 h 9.27 c -2.44,-14.641 -8.34,-25.856 -17.69,-33.668 -9.36,-7.801 -21.52,-11.707 -36.48,-11.707 -17.41,0 -30.98,5.976 -40.74,17.929 -9.77,11.957 -14.65,27.125 -14.65,45.508 0,8.949 1.18,17.489 3.54,25.617 2.36,8.137 5.86,15.375 10.49,21.719 4.64,6.344 10.45,11.344 17.46,15.008 6.99,3.656 14.96,5.492 23.9,5.492 9.1,0 17.16,-1.594 24.15,-4.762 7,-3.171 12.82,-7.652 17.45,-13.418 4.64,-5.781 8.09,-12.41 10.36,-19.89 2.3,-7.481 3.43,-15.531 3.43,-24.152 0,-0.493 -0.09,-1.219 -0.24,-2.196 v -2.445 h -101.26"
         style="fill:#ffffff;fill-opacity:1;fill-rule:nonzero;stroke:none"
         id="path5079" />
      <path
         d="m 3424.92,321.273 v -174.21 h -9.27 v 174.21 h 9.27"
         style="fill:#ffffff;fill-opacity:1;fill-rule:nonzero;stroke:none"
         id="path5081" />
      <path
         d="m 3500.57,264.426 h -27.33 v -87.594 c 0,-8.949 1.98,-14.805 5.98,-17.57 3.98,-2.774 11.01,-4.145 21.11,-4.145 v -8.054 c -0.33,0 -1.46,-0.083 -3.42,-0.247 -1.3,0 -2.36,0 -3.17,0 -4.39,0 -8.34,0.407 -11.84,1.227 -3.49,0.805 -6.59,2.316 -9.26,4.512 -2.69,2.191 -4.81,5.277 -6.36,9.277 -1.53,3.981 -2.31,8.984 -2.31,15 v 87.594 h -23.18 v 8.051 h 23.18 v 39.043 h 9.27 v -39.043 h 27.33 v -8.051"
         style="fill:#ffffff;fill-opacity:1;fill-rule:nonzero;stroke:none"
         id="path5083" />
      <path
         d="m 3526.91,244.664 h 0.74 c 2.44,8.129 8.09,14.922 16.95,20.375 8.88,5.445 19.25,8.168 31.11,8.168 v -9.269 c -0.48,0 -1.22,0.082 -2.19,0.246 -1.15,0 -1.96,0 -2.44,0 -5.04,0 -10.21,-0.981 -15.49,-2.93 -5.29,-1.945 -10.13,-5.125 -14.53,-9.52 -4.87,-5.039 -8.34,-10.039 -10.37,-15 -2.03,-4.964 -3.29,-12 -3.78,-21.109 v -68.562 h -9.26 v 125.414 h 9.26 v -27.813"
         style="fill:#ffffff;fill-opacity:1;fill-rule:nonzero;stroke:none"
         id="path5085" />
      <path
         d="m 3668.68,218.305 c -2.44,-2.762 -6.06,-4.676 -10.86,-5.727 -4.8,-1.058 -11.59,-1.918 -20.38,-2.566 -6.49,-0.485 -11.22,-0.973 -14.15,-1.465 -11.39,-1.301 -19.97,-4.188 -25.74,-8.652 -5.77,-4.485 -8.66,-11.278 -8.66,-20.379 0,-7.973 2.84,-14.52 8.54,-19.645 5.69,-5.125 13.82,-7.687 24.4,-7.687 9.75,0 17.82,1.746 24.16,5.242 6.34,3.508 11.13,7.73 14.39,12.691 3.25,4.965 5.46,9.645 6.59,14.028 1.15,4.394 1.71,7.98 1.71,10.742 z m 9.27,-48.063 c 0,-4.883 0.45,-8.621 1.35,-11.222 0.9,-2.61 3.2,-3.903 6.94,-3.903 1.64,0 3.92,0.242 6.85,0.727 v -7.801 h -0.75 c -3.08,-0.66 -5.36,-0.98 -6.82,-0.98 -6.67,0 -11.15,1.546 -13.43,4.636 -2.28,3.086 -3.41,7.641 -3.41,13.66 v 6.594 h -0.49 c -3.09,-7.976 -8.78,-14.605 -17.09,-19.887 -8.29,-5.289 -18.12,-7.929 -29.51,-7.929 -12.86,0 -23.05,2.804 -30.62,8.418 -7.57,5.613 -11.35,14.597 -11.35,26.961 0,6.992 1.34,12.843 4.02,17.562 2.69,4.719 6.26,8.418 10.75,11.106 4.47,2.683 9.3,4.636 14.52,5.859 5.2,1.215 10.81,2.066 16.83,2.559 10.89,0.816 19.11,1.671 24.64,2.562 5.53,0.891 9.64,2.191 12.33,3.906 2.68,1.703 4.39,3.981 5.11,6.828 0.74,2.84 1.11,7.118 1.11,12.805 0,1.793 -0.54,4.035 -1.6,6.715 -1.06,2.687 -2.89,5.406 -5.48,8.176 -2.61,2.765 -6.22,5.082 -10.86,6.953 -4.64,1.867 -10.29,2.808 -16.96,2.808 -11.39,0 -20.49,-2.886 -27.33,-8.664 -6.83,-5.777 -10.58,-14.027 -11.22,-24.765 h -9.27 c 0.65,13.668 5.04,23.988 13.17,30.984 8.13,6.992 19.68,10.5 34.65,10.5 6.02,0 11.6,-0.531 16.71,-1.594 5.12,-1.058 9.76,-2.8 13.91,-5.246 4.15,-2.433 7.41,-5.816 9.76,-10.125 2.36,-4.304 3.54,-9.554 3.54,-15.742 v -72.461"
         style="fill:#ffffff;fill-opacity:1;fill-rule:nonzero;stroke:none"
         id="path5087" />
      <path
         d="m 3801.9,233.688 c -0.82,10.73 -5.17,19.027 -13.05,24.886 -7.89,5.852 -17.69,8.781 -29.41,8.781 -7.64,0 -14.47,-1.55 -20.48,-4.636 -6.04,-3.09 -11.11,-7.285 -15.26,-12.563 -4.15,-5.289 -7.28,-11.308 -9.39,-18.062 -2.12,-6.746 -3.17,-13.789 -3.17,-21.102 0,-17.73 4.13,-31.965 12.44,-42.703 8.3,-10.734 20.25,-16.105 35.86,-16.105 11.55,0 21.31,3.621 29.29,10.863 7.97,7.23 12.75,16.625 14.4,28.18 h 9.26 c -1.95,-14.641 -7.8,-26.149 -17.56,-34.532 -9.76,-8.375 -21.56,-12.558 -35.39,-12.558 -9.75,0 -18.34,1.797 -25.74,5.367 -7.39,3.57 -13.41,8.457 -18.05,14.637 -4.63,6.179 -8.09,13.3 -10.37,21.347 -2.28,8.059 -3.41,16.551 -3.41,25.504 0,8.778 1.25,17.074 3.77,24.887 2.52,7.809 6.26,14.68 11.23,20.613 4.96,5.934 11.06,10.578 18.3,13.914 7.23,3.332 15.33,5.004 24.27,5.004 14.32,0 26.2,-3.539 35.63,-10.613 9.43,-7.082 14.8,-17.449 16.1,-31.109 h -9.27"
         style="fill:#ffffff;fill-opacity:1;fill-rule:nonzero;stroke:none"
         id="path5089" />
      <path
         d="m 3834.6,321.273 h 9.28 v -115.41 l 77.33,66.614 h 13.42 l -54.89,-46.848 58.81,-78.566 h -12.7 l -53.44,71.492 -28.53,-24.157 v -47.335 h -9.28 v 174.21"
         style="fill:#ffffff;fill-opacity:1;fill-rule:nonzero;stroke:none"
         id="path5091" />
      <path
         d="m 4042.72,216.602 c -0.16,6.671 -1.3,13.054 -3.4,19.152 -2.12,6.101 -5.14,11.512 -9.04,16.223 -3.9,4.722 -8.7,8.464 -14.4,11.226 -5.68,2.766 -12.03,4.152 -19.02,4.152 -6.67,0 -12.78,-1.421 -18.31,-4.273 -5.52,-2.848 -10.28,-6.711 -14.26,-11.59 -4,-4.875 -7.13,-10.332 -9.41,-16.351 -2.27,-6.016 -3.65,-12.192 -4.14,-18.539 z m -91.98,-8.055 c 0,-15.942 4.03,-29.313 12.08,-40.133 8.05,-10.82 19.39,-16.23 34.04,-16.23 11.87,0 21.79,3.336 29.76,10.007 7.97,6.661 13.02,15.778 15.13,27.321 h 9.27 c -2.44,-14.641 -8.33,-25.856 -17.69,-33.668 -9.36,-7.801 -21.51,-11.707 -36.47,-11.707 -17.41,0 -30.99,5.976 -40.76,17.929 -9.75,11.957 -14.63,27.125 -14.63,45.508 0,8.949 1.18,17.489 3.54,25.617 2.35,8.137 5.85,15.375 10.49,21.719 4.64,6.344 10.45,11.344 17.44,15.008 6.99,3.656 14.97,5.492 23.92,5.492 9.1,0 17.15,-1.594 24.16,-4.762 6.98,-3.171 12.8,-7.652 17.44,-13.418 4.63,-5.781 8.09,-12.41 10.37,-19.89 2.27,-7.481 3.41,-15.531 3.41,-24.152 0,-0.493 -0.08,-1.219 -0.24,-2.196 v -2.445 h -101.26"
         style="fill:#ffffff;fill-opacity:1;fill-rule:nonzero;stroke:none"
         id="path5093" />
      <path
         d="m 4082.98,244.664 h 0.74 c 2.43,8.129 8.09,14.922 16.95,20.375 8.86,5.445 19.24,8.168 31.11,8.168 v -9.269 c -0.48,0 -1.21,0.082 -2.19,0.246 -1.13,0 -1.95,0 -2.44,0 -5.04,0 -10.21,-0.981 -15.5,-2.93 -5.28,-1.945 -10.13,-5.125 -14.51,-9.52 -4.88,-5.039 -8.34,-10.039 -10.37,-15 -2.03,-4.964 -3.29,-12 -3.79,-21.109 v -68.562 h -9.27 v 125.414 h 9.27 v -27.813"
         style="fill:#ffffff;fill-opacity:1;fill-rule:nonzero;stroke:none"
         id="path5095" />
      <path
         d="m 4137.39,147.063 v 25.128 h 12.46 v -25.128 h -12.46"
         style="fill:#ffffff;fill-opacity:1;fill-rule:nonzero;stroke:none"
         id="path5097" />
      <path
         d="m 4285.75,233.688 c -0.82,10.73 -5.16,19.027 -13.05,24.886 -7.9,5.852 -17.69,8.781 -29.4,8.781 -7.66,0 -14.49,-1.55 -20.51,-4.636 -6.01,-3.09 -11.09,-7.285 -15.24,-12.563 -4.14,-5.289 -7.28,-11.308 -9.4,-18.062 -2.11,-6.746 -3.17,-13.789 -3.17,-21.102 0,-17.73 4.15,-31.965 12.44,-42.703 8.3,-10.734 20.27,-16.105 35.88,-16.105 11.54,0 21.3,3.621 29.28,10.863 7.96,7.23 12.76,16.625 14.38,28.18 h 9.29 c -1.96,-14.641 -7.82,-26.149 -17.58,-34.532 -9.75,-8.375 -21.55,-12.558 -35.37,-12.558 -9.76,0 -18.35,1.797 -25.74,5.367 -7.41,3.57 -13.43,8.457 -18.07,14.637 -4.63,6.179 -8.09,13.3 -10.37,21.347 -2.27,8.059 -3.41,16.551 -3.41,25.504 0,8.778 1.26,17.074 3.79,24.887 2.52,7.809 6.26,14.68 11.22,20.613 4.96,5.934 11.06,10.578 18.3,13.914 7.24,3.332 15.34,5.004 24.28,5.004 14.31,0 26.19,-3.539 35.62,-10.613 9.44,-7.082 14.8,-17.449 16.11,-31.109 h -9.28"
         style="fill:#ffffff;fill-opacity:1;fill-rule:nonzero;stroke:none"
         id="path5099" />
      <path
         d="m 4324.54,187.934 c 2.12,-6.918 5.25,-13.063 9.4,-18.426 4.15,-5.367 9.23,-9.598 15.25,-12.688 6.02,-3.09 12.85,-4.636 20.5,-4.636 7.63,0 14.48,1.546 20.5,4.636 6,3.09 11.09,7.321 15.24,12.688 4.15,5.363 7.28,11.508 9.39,18.426 2.12,6.91 3.18,14.191 3.18,21.839 0,7.645 -1.06,14.918 -3.18,21.832 -2.11,6.915 -5.24,13.059 -9.39,18.422 -4.15,5.368 -9.24,9.602 -15.24,12.692 -6.02,3.086 -12.87,4.636 -20.5,4.636 -7.65,0 -14.48,-1.55 -20.5,-4.636 -6.02,-3.09 -11.1,-7.324 -15.25,-12.692 -4.15,-5.363 -7.28,-11.507 -9.4,-18.422 -2.11,-6.914 -3.16,-14.187 -3.16,-21.832 0,-7.648 1.05,-14.929 3.16,-21.839 z m -8.66,47.207 c 2.53,7.968 6.31,14.972 11.36,20.988 5.03,6.016 11.13,10.742 18.3,14.148 7.15,3.418 15.19,5.133 24.15,5.133 8.94,0 17.03,-1.715 24.28,-5.133 7.22,-3.406 13.33,-8.132 18.3,-14.148 4.95,-6.016 8.69,-13.02 11.22,-20.988 2.52,-7.961 3.78,-16.43 3.78,-25.368 0,-8.949 -1.26,-17.367 -3.78,-25.257 -2.53,-7.891 -6.31,-14.887 -11.34,-20.981 -5.05,-6.109 -11.15,-10.863 -18.3,-14.277 -7.17,-3.414 -15.22,-5.121 -24.16,-5.121 -8.96,0 -17.04,1.707 -24.28,5.121 -7.24,3.414 -13.3,8.137 -18.17,14.148 -4.89,6.02 -8.64,13.02 -11.23,20.989 -2.61,7.964 -3.91,16.429 -3.91,25.378 0,8.938 1.26,17.407 3.78,25.368"
         style="fill:#ffffff;fill-opacity:1;fill-rule:nonzero;stroke:none"
         id="path5101" />
      <path
         d="m 4449.22,272.477 h 9.27 v -25.618 h 0.49 c 1.96,7.965 6.67,14.719 14.16,20.246 7.48,5.532 15.85,8.305 25.13,8.305 11.06,0 19.77,-2.605 26.11,-7.812 6.34,-5.211 10.24,-11.469 11.7,-18.789 h 0.5 c 3.74,8.785 8.82,15.41 15.25,19.886 6.41,4.473 14.6,6.715 24.52,6.715 11.87,0 21.38,-3.586 28.55,-10.738 7.15,-7.16 10.74,-17.813 10.74,-31.961 v -85.648 h -9.27 v 85.882 c 0,7.485 -1.15,13.586 -3.43,18.305 -2.28,4.719 -5.03,8.215 -8.29,10.488 -3.25,2.282 -6.47,3.789 -9.65,4.516 -3.16,0.738 -6.04,1.101 -8.65,1.101 -11.71,0 -21.19,-4.027 -28.43,-12.078 -7.24,-8.054 -10.86,-19.398 -10.86,-34.039 v -74.175 h -9.27 v 85.882 c 0,7.328 -1.06,13.344 -3.17,18.067 -2.12,4.711 -4.76,8.246 -7.93,10.613 -3.16,2.355 -6.35,3.902 -9.52,4.629 -3.18,0.738 -6.13,1.101 -8.9,1.101 -4.56,0 -9.2,-0.941 -13.91,-2.808 -4.72,-1.871 -9.02,-4.68 -12.93,-8.418 -3.91,-3.746 -7.04,-8.578 -9.39,-14.52 -2.36,-5.933 -3.55,-12.722 -3.55,-20.371 v -74.175 h -9.27 v 125.414"
         style="fill:#ffffff;fill-opacity:1;fill-rule:nonzero;stroke:none"
         id="path5103" />
      <path
         d="m 4635.21,270.32 h -10.18 v 3.672 h 24.77 v -3.672 h -10.23 v -29.789 h -4.36 v 29.789"
         style="fill:#ffffff;fill-opacity:1;fill-rule:nonzero;stroke:none"
         id="path5105" />
      <path
         d="m 4681.63,255.23 c -0.24,4.665 -0.54,10.321 -0.54,14.442 h -0.1 c -1.19,-3.871 -2.53,-8.09 -4.22,-12.707 l -5.91,-16.235 h -3.28 l -5.45,15.942 c -1.59,4.766 -2.88,9.031 -3.83,13 h -0.1 c -0.09,-4.168 -0.34,-9.731 -0.64,-14.789 l -0.89,-14.352 h -4.12 l 2.32,33.461 h 5.52 l 5.7,-16.179 c 1.4,-4.122 2.48,-7.793 3.38,-11.27 h 0.1 c 0.89,3.367 2.08,7.047 3.57,11.27 l 5.96,16.179 h 5.51 l 2.09,-33.461 h -4.27 l -0.8,14.699"
         style="fill:#ffffff;fill-opacity:1;fill-rule:nonzero;stroke:none"
         id="path5107" />
      <path
         d="M 1960.94,606.758 V 138.652 Z"
         style="fill:none;stroke:#ffffff;stroke-width:10;stroke-linecap:butt;stroke-linejoin:miter;stroke-miterlimit:10;stroke-dasharray:none;stroke-opacity:1"
         id="path5109" />
    </g>
  </g>
</svg>
